<svg width="2400" height="1000" viewBox="0 0 2400 1000" fill="none" xmlns="http://www.w3.org/2000/svg">
<g clip-path="url(#clip0_3174_6590)">
<path d="M1871.52 656.4C1916.62 650.81 1966.1 641.11 2016.06 628.53C2006 615.78 1996.44 603.56 1987.34 591.81C1949.23 614.31 1909.87 636.08 1871.52 656.4Z" fill="#FF5E00"/>
<path d="M1935.69 523.64C1844.69 538.03 1738.56 549.77 1633.68 557.89C1654.33 601.79 1677.73 635.17 1709.94 649.08C1744.31 663.92 1802.81 664.92 1871.51 656.4C1909.86 636.08 1949.22 614.31 1987.33 591.81C1968.16 567.07 1951.05 544.47 1935.69 523.64Z" fill="#FF8800"/>
<path d="M1949.4 6.66919C1949.41 6.66919 1949.43 6.66918 1949.44 6.65918C1791.19 21.8692 1634.09 62.1892 1593.57 118.439C1544.29 186.859 1562.47 384.529 1618.93 523.919C1623.74 535.789 1628.63 547.149 1633.68 557.889C1738.56 549.769 1844.69 538.029 1935.69 523.639C1854.22 413.119 1822.19 352.399 1794.46 285.509C1751.1 180.929 1704.88 37.7392 1949.4 6.66919Z" fill="#9000FF"/>
<path d="M2356.46 118.01C2355.63 116.16 2354.8 114.32 2353.95 112.52V112.51C2340.77 81.1596 2320.78 47.2296 2294.25 32.7396C2282.38 26.2596 2267.39 20.7996 2249.9 16.3096C2255.67 51.7396 2260.12 84.8396 2263.23 115.75C2292.29 115.97 2323.32 116.7 2356.46 118.01Z" fill="#00C5FF"/>
<path d="M2163.77 107.33C2165.56 110.43 2167.35 113.62 2169.13 116.87C2197.94 115.88 2229.24 115.47 2263.23 115.74C2260.12 84.83 2255.67 51.74 2249.9 16.3C2208.9 5.76002 2154.15 0.550039 2093.58 0.0400391C2117.42 32.89 2141.82 69.31 2163.77 107.33Z" fill="#2686FF"/>
<path d="M1953.74 142.07C2002.66 130.07 2071.7 120.2 2169.12 116.87C2167.34 113.62 2165.56 110.43 2163.76 107.33C2141.81 69.2996 2117.42 32.8896 2093.57 0.0395847C2047.71 -0.350415 1998.52 1.94958 1949.44 6.65958C1949.43 6.65958 1949.41 6.65959 1949.4 6.66959C1704.88 37.7396 1751.1 180.93 1794.46 285.51C1822.2 352.4 1854.22 413.12 1935.69 523.64C1935.72 523.64 1935.75 523.63 1935.78 523.63C1850.61 405.78 1767 187.89 1953.74 142.07Z" fill="#A53BFF"/>
<path d="M2199.9 436.45C2199.8 436.56 2199.71 436.67 2199.61 436.77C2152.52 486.73 2072.95 541.22 1987.33 591.81C1996.4 603.48 2005.34 614.83 2016.05 628.53C2179.1 587.44 2347.12 515.61 2382.81 455.55C2412.12 406.23 2402.19 220.57 2356.46 118.01C2323.32 116.71 2292.29 115.98 2263.22 115.75C2279.11 273.61 2259.84 374.31 2199.9 436.45Z" fill="#FF0088"/>
<path d="M1987.33 591.809C2072.95 541.229 2152.52 486.729 2199.61 436.769C2199.71 436.669 2199.8 436.549 2199.9 436.449C2192.46 444.159 2184.41 451.289 2175.71 457.849C2142.7 482.729 2051.48 505.319 1935.79 523.619C1936.84 525.069 1937.89 526.509 1938.94 527.939" fill="#FFA33B"/>
<path d="M2199.9 436.449C2259.84 374.309 2279.12 273.599 2263.23 115.739C2229.24 115.469 2197.94 115.879 2169.13 116.869C2221.1 211.929 2264.99 366.789 2199.9 436.449Z" fill="#D90074"/>
<path d="M479.12 219.469C453.7 204.519 424.41 196.939 392.05 196.939C357.74 196.939 326.33 205.139 298.7 221.319C271.08 237.499 248.87 259.829 232.71 287.679C216.54 315.549 208.34 347.329 208.34 382.129C208.34 417.439 216.67 449.469 233.1 477.339C249.52 505.209 272.09 527.539 300.2 543.699C328.3 559.869 360.71 568.069 396.5 568.069C424.34 568.069 450.8 562.779 475.16 552.329C499.55 541.879 520.76 526.479 538.18 506.559L539.62 504.919L493.36 457.859L491.69 459.809C480.15 473.289 466.12 483.529 450 490.259C433.85 497.019 415.85 500.439 396.5 500.439C373.31 500.439 352.52 495.439 334.71 485.559C316.95 475.729 303.07 461.609 293.46 443.569C288 433.339 284.03 421.929 281.66 409.649H556.08L556.48 407.789C557.97 400.859 558.98 394.409 559.49 388.619C559.99 382.849 560.24 377.429 560.24 372.499C560.24 338.709 553.05 308.199 538.86 281.819C524.64 255.409 504.55 234.429 479.12 219.469ZM281.82 349.429C284.11 337.969 287.77 327.439 292.71 318.089C301.82 300.819 314.96 287.189 331.77 277.579C348.6 267.959 368.38 263.079 390.57 263.079C411.75 263.079 430.02 267.569 444.88 276.439C459.72 285.309 471.38 297.939 479.53 313.979C484.61 323.999 488.15 335.909 490.08 349.429H281.82Z" fill="#6E6E6E"/>
<path d="M1297.23 204.34V248.16C1285.48 233.96 1271.36 222.44 1255.15 213.86C1233.91 202.63 1209.51 196.93 1182.61 196.93C1149.74 196.93 1119.8 205.27 1093.64 221.72C1067.51 238.14 1046.56 260.59 1031.38 288.47C1016.21 316.33 1008.52 348.09 1008.52 382.87C1008.52 417.66 1016.21 449.42 1031.38 477.27C1046.56 505.15 1067.51 527.49 1093.65 543.66C1119.81 559.86 1149.74 568.07 1182.62 568.07C1209.51 568.07 1234.04 562.38 1255.52 551.14C1271.69 542.68 1285.69 531.28 1297.23 517.21V560.66H1369.3V204.34H1297.23ZM1301.67 382.88C1301.67 417.15 1291.66 445.64 1271.93 467.55C1252.25 489.38 1225.94 500.45 1193.72 500.45C1172.04 500.45 1152.53 495.34 1135.71 485.24C1118.89 475.15 1105.6 461.13 1096.23 443.58C1086.83 425.99 1082.07 405.32 1082.07 382.13C1082.07 359.44 1086.83 339.02 1096.23 321.42C1105.61 303.86 1118.78 289.84 1135.35 279.76C1151.92 269.68 1171.31 264.56 1192.98 264.56C1214.63 264.56 1233.77 269.55 1249.86 279.39C1265.94 289.23 1278.72 303.24 1287.86 321.02C1297.03 338.89 1301.67 359.7 1301.67 382.88Z" fill="#6E6E6E"/>
<path d="M764.62 196.93C725.05 196.93 694.28 210.68 673.19 237.81C672.61 238.56 672.04 239.32 671.48 240.09V204.33H600.14V560.67H671.48V358.45C671.48 326.67 679.22 302.82 694.48 287.56C709.74 272.3 729.6 264.56 753.52 264.56C764.51 264.56 774.37 266.15 782.82 269.28L785.99 270.46V198.66L783.96 198.38C776.84 197.39 770.7 196.93 764.62 196.93Z" fill="#6E6E6E"/>
<path d="M1015.95 270.46V198.66L1013.92 198.38C1006.81 197.39 1000.66 196.93 994.58 196.93C955.01 196.93 924.25 210.68 903.15 237.81C902.57 238.56 902 239.32 901.44 240.09V204.33H830.1V560.67H901.44V358.45C901.44 326.67 909.18 302.82 924.44 287.56C939.7 272.3 959.56 264.56 983.48 264.56C994.47 264.56 1004.33 266.15 1012.79 269.28L1015.95 270.46Z" fill="#6E6E6E"/>
<path d="M78.15 359.66V279.12H156.4V203.9H78.15V83.5498H0V359.66C0 422.98 16.48 475.92 47.66 512.78C77.85 548.46 121.11 568.11 169.49 568.11V489.97C112.29 489.96 78.15 441.25 78.15 359.66Z" fill="#6E6E6E"/>
<path d="M65.8064 978.623C54.6462 978.623 44.6206 975.917 35.7298 970.493C26.839 965.056 19.8187 957.674 14.6937 948.322C9.56871 938.97 7 928.421 7 916.649C7 904.891 9.55624 894.341 14.6937 884.989C19.8187 875.637 26.8266 868.255 35.7298 862.818C44.6206 857.394 54.6462 854.676 65.8064 854.676C76.5053 854.676 86.2316 856.708 94.9852 860.786C103.726 864.863 110.51 870.512 115.336 877.757L99.9606 896.299C97.7036 893.132 94.8356 890.264 91.369 887.708C87.9025 885.139 84.2115 883.106 80.2836 881.598C76.3556 880.089 72.4402 879.328 68.5248 879.328C61.891 879.328 55.9679 880.949 50.7681 884.191C45.5683 887.433 41.4533 891.885 38.4357 897.546C35.4181 903.195 33.9093 909.567 33.9093 916.649C33.9093 923.745 35.4555 930.079 38.548 935.641C41.6404 941.214 45.8177 945.666 51.1048 948.996C56.3795 952.312 62.265 953.971 68.7492 953.971C72.6647 953.971 76.4679 953.335 80.1714 952.051C83.8748 950.766 87.3788 948.921 90.6832 946.514C93.9876 944.108 97.0926 941.09 99.9606 937.461L115.336 956.24C110.211 962.874 103.153 968.261 94.1871 972.401C85.2091 976.553 75.7571 978.623 65.8064 978.623Z" fill="#6E6E6E"/>
<path d="M200.655 978.624C188.747 978.624 178.11 975.955 168.771 970.593C159.418 965.244 152.036 957.887 146.6 948.547C141.175 939.207 138.457 928.571 138.457 916.662C138.457 904.754 141.175 894.117 146.6 884.778C152.036 875.438 159.418 868.081 168.771 862.731C178.123 857.382 188.747 854.701 200.655 854.701C212.414 854.701 222.963 857.382 232.315 862.731C241.668 868.093 249.012 875.438 254.362 884.778C259.711 894.13 262.392 904.754 262.392 916.662C262.392 928.571 259.711 939.207 254.362 948.547C249.012 957.899 241.655 965.244 232.315 970.593C222.976 975.955 212.426 978.624 200.655 978.624ZM200.655 953.971C207.139 953.971 212.9 952.313 217.963 948.996C223.013 945.679 227.003 941.227 229.946 935.641C232.889 930.067 234.273 923.733 234.123 916.65C234.273 909.418 232.877 903.008 229.946 897.434C227.003 891.86 223.013 887.446 217.963 884.204C212.913 880.962 207.139 879.341 200.655 879.341C194.171 879.341 188.323 880.962 183.123 884.204C177.923 887.446 173.883 891.898 171.028 897.559C168.16 903.208 166.726 909.58 166.726 916.662C166.726 923.758 168.16 930.092 171.028 935.653C173.896 941.227 177.923 945.679 183.123 949.008C188.335 952.313 194.171 953.971 200.655 953.971Z" fill="#6E6E6E"/>
<path d="M288.849 976.366V857.182H315.982L316.431 881.61L311.232 884.316C312.74 878.892 315.683 873.954 320.047 869.502C324.424 865.063 329.624 861.472 335.647 858.766C341.682 856.048 347.855 854.688 354.189 854.688C363.23 854.688 370.811 856.497 376.921 860.125C383.031 863.741 387.62 869.166 390.712 876.41C393.805 883.643 395.351 892.696 395.351 903.557V976.379H367.532V905.589C367.532 899.566 366.709 894.554 365.038 890.551C363.379 886.561 360.823 883.618 357.344 881.722C353.877 879.839 349.65 878.979 344.687 879.129C340.61 879.129 336.881 879.765 333.49 881.049C330.098 882.334 327.155 884.154 324.674 886.486C322.18 888.818 320.222 891.499 318.788 894.516C317.354 897.534 316.643 900.838 316.643 904.467V976.391H302.852C300.134 976.391 297.615 976.391 295.27 976.391C292.951 976.366 290.806 976.366 288.849 976.366Z" fill="#6E6E6E"/>
<path d="M484.005 978.623C471.485 978.623 460.437 975.992 450.873 970.705C441.296 965.431 433.84 958.236 428.478 949.108C423.128 939.993 420.447 929.543 420.447 917.797C420.447 908.445 421.956 899.928 424.974 892.234C427.991 884.553 432.169 877.882 437.531 872.221C442.88 866.559 449.289 862.195 456.759 859.103C464.215 856.023 472.396 854.464 481.299 854.464C489.13 854.464 496.449 855.973 503.233 858.978C510.016 861.995 515.902 866.11 520.877 871.31C525.853 876.51 529.656 882.695 532.299 889.852C534.93 897.022 536.177 904.816 536.028 913.258L535.803 922.984H439.226L434.027 903.993H512.51L508.894 907.834V902.858C508.445 898.182 506.936 894.067 504.367 890.526C501.799 886.985 498.519 884.191 494.529 882.159C490.539 880.126 486.125 879.104 481.299 879.104C473.904 879.104 467.694 880.538 462.632 883.406C457.582 886.274 453.778 890.376 451.21 895.726C448.641 901.088 447.369 907.759 447.369 915.752C447.369 923.433 448.99 930.154 452.232 935.878C455.474 941.614 460.076 946.015 466.024 949.108C471.984 952.213 478.954 953.747 486.947 953.747C492.521 953.747 497.646 952.836 502.322 951.028C506.999 949.22 512.049 945.978 517.473 941.302L531.264 960.53C527.187 964.296 522.561 967.5 517.348 970.144C512.148 972.788 506.674 974.857 500.951 976.366C495.24 977.863 489.591 978.623 484.005 978.623Z" fill="#6E6E6E"/>
<path d="M621.36 978.623C610.2 978.623 600.174 975.917 591.284 970.493C582.393 965.056 575.372 957.674 570.247 948.322C565.122 938.97 562.554 928.421 562.554 916.649C562.554 904.891 565.11 894.341 570.247 884.989C575.372 875.637 582.38 868.255 591.284 862.818C600.174 857.394 610.2 854.676 621.36 854.676C632.059 854.676 641.785 856.708 650.539 860.786C659.28 864.863 666.063 870.512 670.889 877.757L655.514 896.299C653.257 893.132 650.389 890.264 646.923 887.708C643.456 885.139 639.765 883.106 635.837 881.598C631.909 880.089 627.994 879.328 624.079 879.328C617.445 879.328 611.522 880.949 606.322 884.191C601.122 887.433 597.007 891.885 593.989 897.546C590.972 903.195 589.463 909.567 589.463 916.649C589.463 923.745 591.009 930.079 594.102 935.641C597.194 941.214 601.371 945.666 606.659 948.996C611.933 952.312 617.819 953.971 624.303 953.971C628.218 953.971 632.022 953.335 635.725 952.051C639.429 950.766 642.932 948.921 646.237 946.514C649.541 944.108 652.646 941.09 655.514 937.461L670.889 956.24C665.764 962.874 658.706 968.261 649.741 972.401C640.775 976.553 631.311 978.623 621.36 978.623Z" fill="#6E6E6E"/>
<path d="M677.093 882.956V857.169H754.441V882.956H677.093ZM700.61 976.366V826.881H728.43V976.366H700.61Z" fill="#6E6E6E"/>
<path d="M823.136 978.624C813.335 978.624 804.444 975.918 796.451 970.493C788.458 965.057 782.049 957.675 777.223 948.323C772.398 938.97 769.979 928.346 769.979 916.438C769.979 904.53 772.385 893.893 777.223 884.553C782.049 875.201 788.608 867.894 796.9 862.619C805.193 857.332 814.545 854.701 824.944 854.701C830.98 854.701 836.479 855.574 841.454 857.307C846.429 859.053 850.806 861.485 854.572 864.652C858.338 867.819 861.468 871.435 863.962 875.5C866.456 879.578 868.139 883.955 869.049 888.618L862.939 887.035V857.17H890.983V976.354H862.715V947.849L869.274 946.714C868.214 950.792 866.293 954.744 863.5 958.585C860.707 962.426 857.241 965.817 853.101 968.76C848.948 971.703 844.359 974.085 839.309 975.893C834.259 977.726 828.872 978.624 823.136 978.624ZM830.83 953.971C837.314 953.971 843.038 952.388 848.013 949.22C852.988 946.053 856.866 941.651 859.66 935.99C862.453 930.329 863.837 923.82 863.837 916.425C863.837 909.193 862.44 902.784 859.66 897.197C856.866 891.623 852.988 887.247 848.013 884.079C843.038 880.925 837.302 879.329 830.83 879.329C824.346 879.329 818.647 880.912 813.759 884.079C808.859 887.247 805.055 891.623 802.337 897.197C799.619 902.771 798.26 909.193 798.26 916.425C798.26 923.82 799.619 930.329 802.337 935.99C805.055 941.651 808.859 946.053 813.759 949.22C818.647 952.388 824.346 953.971 830.83 953.971Z" fill="#6E6E6E"/>
<path d="M973.841 978.623C963.279 978.623 953.827 975.955 945.46 970.593C937.093 965.244 930.459 957.936 925.558 948.659C920.658 939.382 918.214 928.72 918.214 916.65C918.214 904.741 920.621 894.105 925.446 884.765C930.272 875.425 936.868 868.068 945.235 862.719C953.603 857.369 963.067 854.688 973.616 854.688C979.34 854.688 984.889 855.599 990.238 857.407C995.588 859.215 1000.38 861.671 1004.6 864.751C1008.83 867.831 1012.18 871.273 1014.67 875.039C1017.16 878.805 1018.54 882.733 1018.86 886.798L1011.39 887.708V809H1039.21V976.354H1012.3L1011.62 948.31L1017.06 948.759C1016.91 952.525 1015.59 956.153 1013.11 959.607C1010.61 963.086 1007.41 966.254 1003.49 969.109C999.565 971.977 995.014 974.272 989.814 976.005C984.589 977.751 979.277 978.623 973.841 978.623ZM979.277 955.106C985.762 955.106 991.485 953.447 996.46 950.131C1001.44 946.814 1005.31 942.287 1008.11 936.564C1010.89 930.828 1012.28 924.194 1012.28 916.662C1012.28 909.28 1010.89 902.684 1008.11 896.873C1005.31 891.062 1001.44 886.548 996.46 883.306C991.485 880.064 985.749 878.443 979.277 878.443C972.793 878.443 967.07 880.064 962.094 883.306C957.119 886.548 953.229 891.062 950.448 896.873C947.655 902.671 946.258 909.28 946.258 916.662C946.258 924.206 947.655 930.84 950.448 936.564C953.229 942.3 957.119 946.826 962.094 950.131C967.057 953.447 972.793 955.106 979.277 955.106Z" fill="#6E6E6E"/>
<path d="M1128.94 978.624C1117.03 978.624 1106.39 975.955 1097.05 970.593C1087.7 965.244 1080.32 957.887 1074.88 948.547C1069.46 939.207 1066.74 928.571 1066.74 916.662C1066.74 904.754 1069.46 894.117 1074.88 884.778C1080.31 875.438 1087.7 868.081 1097.05 862.731C1106.41 857.382 1117.03 854.701 1128.94 854.701C1140.7 854.701 1151.25 857.382 1160.6 862.731C1169.95 868.093 1177.3 875.438 1182.65 884.778C1188 894.13 1190.68 904.754 1190.68 916.662C1190.68 928.571 1188 939.207 1182.65 948.547C1177.3 957.899 1169.94 965.244 1160.6 970.593C1151.25 975.955 1140.7 978.624 1128.94 978.624ZM1128.94 953.971C1135.42 953.971 1141.18 952.313 1146.25 948.996C1151.3 945.679 1155.29 941.227 1158.23 935.641C1161.17 930.067 1162.56 923.733 1162.41 916.65C1162.56 909.418 1161.16 903.008 1158.23 897.434C1155.29 891.86 1151.3 887.446 1146.25 884.204C1141.2 880.962 1135.42 879.341 1128.94 879.341C1122.46 879.341 1116.61 880.962 1111.41 884.204C1106.21 887.446 1102.17 891.898 1099.31 897.559C1096.44 903.208 1095.01 909.58 1095.01 916.662C1095.01 923.758 1096.44 930.092 1099.31 935.653C1102.18 941.227 1106.21 945.679 1111.41 949.008C1116.61 952.313 1122.46 953.971 1128.94 953.971Z" fill="#6E6E6E"/>
<path d="M1280.19 1026.12V857.169H1307.56L1308.01 884.316L1303.25 882.283C1304.16 877.607 1306.72 873.205 1310.95 869.053C1315.16 864.913 1320.34 861.559 1326.44 858.99C1332.55 856.434 1338.9 855.149 1345.55 855.149C1356.1 855.149 1365.49 857.793 1373.71 863.068C1381.92 868.342 1388.41 875.587 1393.16 884.777C1397.91 893.98 1400.28 904.604 1400.28 916.662C1400.28 928.57 1397.91 939.169 1393.16 948.447C1388.41 957.711 1381.92 965.031 1373.71 970.381C1365.49 975.73 1356.25 978.411 1346 978.411C1339.07 978.411 1332.4 977.052 1325.99 974.333C1319.58 971.628 1314.14 968.086 1309.7 963.709C1305.25 959.333 1302.49 954.744 1301.45 949.906L1308.23 946.738V1026.12H1280.19ZM1340.35 953.746C1346.69 953.746 1352.33 952.163 1357.31 948.995C1362.29 945.828 1366.16 941.451 1368.96 935.877C1371.75 930.303 1373.15 923.894 1373.15 916.649C1373.15 909.417 1371.79 903.045 1369.07 897.546C1366.35 892.047 1362.51 887.707 1357.53 884.54C1352.56 881.373 1346.82 879.789 1340.35 879.789C1333.72 879.789 1327.94 881.335 1323.04 884.428C1318.14 887.52 1314.25 891.86 1311.4 897.434C1308.53 903.008 1307.09 909.417 1307.09 916.649C1307.09 923.894 1308.53 930.291 1311.4 935.877C1314.26 941.451 1318.14 945.828 1323.04 948.995C1327.94 952.163 1333.7 953.746 1340.35 953.746Z" fill="#6E6E6E"/>
<path d="M1489.23 978.624C1477.32 978.624 1466.68 975.955 1457.34 970.593C1447.99 965.244 1440.61 957.887 1435.17 948.547C1429.75 939.207 1427.03 928.571 1427.03 916.662C1427.03 904.754 1429.75 894.117 1435.17 884.778C1440.6 875.438 1447.99 868.081 1457.34 862.731C1466.7 857.382 1477.32 854.701 1489.23 854.701C1500.99 854.701 1511.54 857.382 1520.89 862.731C1530.24 868.093 1537.59 875.438 1542.93 884.778C1548.28 894.13 1550.97 904.754 1550.97 916.662C1550.97 928.571 1548.28 939.207 1542.93 948.547C1537.59 957.899 1530.23 965.244 1520.89 970.593C1511.54 975.955 1500.99 978.624 1489.23 978.624ZM1489.23 953.971C1495.71 953.971 1501.47 952.313 1506.54 948.996C1511.59 945.679 1515.58 941.227 1518.52 935.641C1521.46 930.067 1522.85 923.733 1522.7 916.65C1522.85 909.418 1521.45 903.008 1518.52 897.434C1515.58 891.86 1511.59 887.446 1506.54 884.204C1501.49 880.962 1495.71 879.341 1489.23 879.341C1482.74 879.341 1476.9 880.962 1471.7 884.204C1466.5 887.446 1462.46 891.898 1459.6 897.559C1456.73 903.208 1455.3 909.58 1455.3 916.662C1455.3 923.758 1456.73 930.092 1459.6 935.653C1462.47 941.227 1466.5 945.679 1471.7 949.008C1476.9 952.313 1482.74 953.971 1489.23 953.971Z" fill="#6E6E6E"/>
<path d="M1577.42 976.366V857.182H1604.79L1605.24 895.177L1601.4 886.586C1603.06 880.563 1605.93 875.126 1609.99 870.3C1614.06 865.475 1618.77 861.671 1624.13 858.878C1629.48 856.085 1635.11 854.688 1640.98 854.688C1643.54 854.688 1645.99 854.913 1648.32 855.362C1650.66 855.823 1652.58 856.347 1654.08 856.945L1646.62 887.471C1644.96 886.561 1642.92 885.812 1640.51 885.214C1638.1 884.615 1635.68 884.304 1633.27 884.304C1629.51 884.304 1625.93 885.027 1622.52 886.461C1619.13 887.895 1616.15 889.89 1613.6 892.446C1611.03 895.015 1609.03 897.983 1607.6 901.374C1606.16 904.766 1605.45 908.582 1605.45 912.797V976.341H1577.42V976.366Z" fill="#6E6E6E"/>
<path fill-rule="evenodd" clip-rule="evenodd" d="M1833.14 841.299C1833.14 847.326 1831 856.729 1824.38 863.368C1822.05 865.7 1820.03 867.1 1818.42 868.145C1815.3 870.164 1813.05 871.569 1814.31 874.939C1815.54 878.252 1819.39 877.227 1823.02 876.402C1824.2 876.121 1847.04 870.644 1847.32 870.631C1853.46 869.468 1859.39 873.357 1860.83 879.373C1860.83 879.398 1862.66 887.044 1862.68 887.111C1864.12 893.127 1860.61 899.292 1854.61 901.054C1854.36 901.169 1829.4 907.182 1829.35 907.195C1824.62 908.405 1821.84 910.759 1821.84 915.343C1821.84 917.39 1823.02 919.612 1824.48 921.46C1824.48 921.46 1851.6 955.142 1851.74 955.401C1855.43 960.447 1854.49 967.483 1849.69 971.381C1849.68 971.398 1843.58 976.347 1843.52 976.392C1838.74 980.293 1831.67 979.777 1827.5 975.12C1827.29 974.937 1810.44 954.191 1808.66 951.991C1806.87 949.795 1804.62 946.447 1801.5 946.447C1798.38 946.447 1796.14 949.795 1794.35 951.991C1792.56 954.191 1775.72 974.937 1775.5 975.12C1771.33 979.777 1764.27 980.293 1759.48 976.392C1759.42 976.347 1753.33 971.398 1753.31 971.381C1748.51 967.483 1747.57 960.447 1751.26 955.401C1751.4 955.142 1778.52 921.46 1778.52 921.46C1779.97 919.612 1781.16 917.39 1781.16 915.343C1781.16 910.759 1778.39 908.405 1773.65 907.195C1773.6 907.182 1748.64 901.169 1748.38 901.054C1742.4 899.292 1738.88 893.127 1740.32 887.111C1740.34 887.044 1742.17 879.398 1742.17 879.373C1743.61 873.357 1749.54 869.468 1755.68 870.631C1755.96 870.644 1778.8 876.121 1779.97 876.402C1783.62 877.227 1787.46 878.252 1788.7 874.939C1789.95 871.569 1787.7 870.164 1784.59 868.145C1782.97 867.1 1780.95 865.7 1778.62 863.368C1772 856.729 1769.86 847.326 1769.86 841.299C1769.86 824.017 1784.25 810 1801.5 810C1818.75 810 1833.14 824.017 1833.14 841.299Z" fill="#7E009D"/>
<path d="M1922.8 975H1904.4V814H2005.6V831.25H1922.8V885.3H2001V902.55H1922.8V975ZM2036.29 837.46C2029.39 837.46 2024.79 832.86 2024.79 825.96C2024.79 819.06 2029.39 814.46 2036.29 814.46C2043.19 814.46 2047.79 819.06 2047.79 825.96C2047.79 832.86 2043.19 837.46 2036.29 837.46ZM2044.8 975H2027.55V860H2044.8V975ZM2128.71 977.3C2112.61 977.3 2101.11 970.4 2091.91 958.9H2090.76L2088.46 975H2073.51V814H2090.76V876.1H2091.91C2101.11 864.6 2112.61 857.7 2128.71 857.7C2158.61 857.7 2181.61 881.85 2181.61 917.5C2181.61 953.15 2158.61 977.3 2128.71 977.3ZM2127.56 961.2C2147.11 961.2 2164.36 943.95 2164.36 917.5C2164.36 891.05 2147.11 873.8 2127.56 873.8C2108.01 873.8 2090.76 891.05 2090.76 917.5C2090.76 943.95 2108.01 961.2 2127.56 961.2ZM2219.55 975H2202.3V860H2217.25L2219.55 871.5H2220.7C2225.3 864.6 2229.9 860 2242.55 860H2262.1V876.1H2244.85C2228.75 876.1 2219.55 885.3 2219.55 901.4V975ZM2309.27 977.3C2285.12 977.3 2269.02 962.35 2269.02 941.65C2269.02 919.8 2282.82 904.85 2315.02 904.85H2346.07V901.4C2346.07 884.15 2335.72 873.8 2318.47 873.8C2301.22 873.8 2290.87 883 2289.72 893.35H2272.47C2273.62 874.95 2289.72 857.7 2318.47 857.7C2346.07 857.7 2363.32 873.8 2363.32 901.4V975H2348.37L2346.07 961.2H2344.92C2340.55 968.1 2327.67 977.3 2309.27 977.3ZM2309.27 961.2C2332.27 961.2 2346.07 947.4 2346.07 925.55V920.95H2315.02C2294.32 920.95 2286.27 930.15 2286.27 941.65C2286.27 953.15 2294.32 961.2 2309.27 961.2Z" fill="#7E009D"/>
</g>
<defs>
<clipPath id="clip0_3174_6590">
<rect width="2399.41" height="1000" fill="white"/>
</clipPath>
</defs>
</svg>
